<?xml version="1.0" encoding="utf-8"?>
<!-- Generator: Adobe Illustrator 16.0.0, SVG Export Plug-In . SVG Version: 6.00 Build 0)  -->
<!DOCTYPE svg PUBLIC "-//W3C//DTD SVG 1.1//EN" "http://www.w3.org/Graphics/SVG/1.1/DTD/svg11.dtd">
<svg version="1.1" id="Layer_1" xmlns="http://www.w3.org/2000/svg" xmlns:xlink="http://www.w3.org/1999/xlink" x="0px" y="0px"
	 width="32px" height="32px" viewBox="0 0 32 32" enable-background="new 0 0 32 32" xml:space="preserve">
<g>
	<path fill-rule="evenodd" clip-rule="evenodd" d="M4.865,10.765c0.005-0.051,0.01-0.102,0.018-0.174
		c0.032,0.041,0.056,0.068,0.104,0.127c0.155-0.29,0.307-0.566,0.452-0.845C5.55,9.658,5.655,9.44,5.764,9.223
		C5.78,9.191,5.803,9.161,5.818,9.128c0.124-0.266,0.23-0.542,0.376-0.794c0.106-0.183,0.268-0.333,0.398-0.502
		c0.246-0.318,0.489-0.64,0.731-0.961c0.009-0.012-0.004-0.04-0.006-0.057C7.062,7.05,6.81,7.285,6.557,7.521
		C6.546,7.512,6.535,7.504,6.524,7.496c0.288-0.364,0.576-0.729,0.88-1.113c0.083,0.168,0.149,0.089,0.237,0.009
		C8.175,5.909,8.692,5.405,9.26,4.965c0.303-0.235,0.688-0.372,1.048-0.523c0.864-0.362,1.737-0.702,2.604-1.06
		c0.27-0.111,0.527-0.25,0.78-0.41c-0.101,0.018-0.201,0.036-0.301,0.054c-0.007-0.018-0.013-0.035-0.02-0.052
		c0.079-0.032,0.158-0.062,0.237-0.095c0.129-0.054,0.316-0.036,0.305-0.264c-0.002-0.028,0.085-0.08,0.137-0.088
		c0.182-0.029,0.366-0.041,0.548-0.067c0.046-0.007,0.086-0.048,0.132-0.063c0.11-0.036,0.222-0.089,0.334-0.093
		c0.638-0.022,1.276-0.052,1.914-0.04c0.731,0.013,1.442,0.179,2.147,0.374c0.285,0.079,0.582,0.118,0.869,0.191
		c0.225,0.057,0.452,0.119,0.663,0.211c0.656,0.29,1.317,0.574,1.955,0.903c0.517,0.267,1.007,0.588,1.499,0.901
		C24.355,5,24.574,5.196,24.808,5.369c0.645,0.477,1.168,1.078,1.723,1.648c0.065,0.067,0.114,0.15,0.17,0.227
		c0.018,0.023,0.03,0.064,0.052,0.069c0.388,0.091,0.402,0.488,0.604,0.731c0.027,0.033,0.045,0.075,0.071,0.109
		c0.013,0.015,0.035,0.022,0.11,0.065c-0.054-0.124-0.077-0.203-0.119-0.27c-0.449-0.703-0.897-1.406-1.356-2.102
		c-0.09-0.136-0.221-0.25-0.346-0.357c-0.094-0.081-0.245-0.113-0.159-0.291c0.008-0.015-0.035-0.06-0.061-0.085
		c-0.245-0.243-0.553-0.398-0.778-0.688c-0.206-0.266-0.573-0.409-0.876-0.596c-0.265-0.164-0.548-0.301-0.803-0.478
		c-0.151-0.104-0.266-0.262-0.402-0.402c0.008-0.004,0.067-0.051,0.085-0.039c0.136,0.095,0.264,0.201,0.394,0.303
		c0.017,0.013,0.03,0.032,0.048,0.04c0.26,0.105,0.524,0.198,0.778,0.316c0.182,0.084,0.345,0.208,0.521,0.302
		c0.226,0.12,0.459,0.225,0.686,0.343c0.063,0.034,0.125,0.083,0.17,0.138c0.111,0.136,0.302,0.161,0.458,0.043
		c0.052,0.043,0.105,0.088,0.158,0.132c-0.019-0.343-0.343-0.436-0.5-0.675c0.101,0.061,0.2,0.121,0.344,0.207
		c-0.038-0.095-0.058-0.142-0.076-0.19c0.013-0.012,0.026-0.024,0.039-0.036c0.042,0.055,0.125,0.116,0.118,0.164
		c-0.032,0.216,0.126,0.277,0.263,0.346c0.186,0.093,0.382,0.166,0.607,0.262c-0.009,0.007,0.028-0.023,0.099-0.078
		c0.014,0.029,0.035,0.056,0.037,0.083c0.021,0.308,0.282,0.442,0.458,0.636c0.47,0.516,0.93,1.037,1.27,1.653
		c0.104,0.189,0.267,0.346,0.369,0.536c0.286,0.527,0.558,1.062,0.831,1.597c0.227,0.444,0.454,0.889,0.587,1.375
		c0.179,0.656,0.398,1.301,0.546,1.964c0.155,0.695,0.245,1.404,0.363,2.107c0.002,0.007,0.003,0.014,0.003,0.021
		c0.042,0.673,0.038,1.353,0.138,2.017c0.098,0.655-0.055,1.278-0.129,1.909c-0.054,0.459-0.238,0.901-0.348,1.354
		c-0.107,0.446-0.19,0.898-0.289,1.347c-0.025,0.115-0.068,0.227-0.104,0.34c0.019,0.008,0.038,0.015,0.057,0.022
		c0.019-0.039,0.036-0.078,0.058-0.115c0.019-0.034,0.042-0.065,0.111-0.078c-0.03,0.098-0.053,0.199-0.092,0.293
		c-0.216,0.515-0.433,1.028-0.657,1.538c-0.026,0.06-0.104,0.095-0.146,0.15c-0.053,0.067-0.147,0.186-0.128,0.211
		c0.199,0.271-0.075,0.445-0.151,0.627c-0.164,0.391-0.396,0.758-0.637,1.109c-0.493,0.718-1.015,1.416-1.648,2.021
		c-0.019,0.019-0.029,0.045-0.065,0.103c0.09-0.021,0.144-0.033,0.256-0.059c-0.329,0.298-0.616,0.557-0.901,0.819
		c-0.05,0.046-0.086,0.107-0.127,0.162c-0.066,0.09-0.104,0.179-0.271,0.149c-0.129-0.021-0.333,0.014-0.332,0.251
		c0,0.039-0.041,0.09-0.077,0.117c-0.18,0.137-0.355,0.28-0.548,0.396c-0.151,0.091-0.327,0.138-0.484,0.219
		c-0.059,0.03-0.134,0.101-0.136,0.154c-0.007,0.223-0.18,0.241-0.326,0.284c-0.171,0.051-0.313,0.108-0.401,0.294
		c-0.041,0.086-0.195,0.132-0.307,0.169c-0.265,0.089-0.537,0.154-0.8,0.247c-0.052,0.019-0.076,0.115-0.136,0.128
		c-0.142,0.064-0.279,0.137-0.424,0.192c-0.138,0.054-0.288,0.078-0.423,0.138c-0.457,0.201-0.941,0.305-1.427,0.408
		c-0.352,0.075-0.702,0.155-1.068,0.19c1.683-0.528,3.37-1.039,4.814-2.096c-0.009-0.021-0.019-0.043-0.027-0.064
		c-0.145,0.067-0.288,0.135-0.467,0.219c0.032-0.074,0.051-0.117,0.069-0.159c-0.013-0.014-0.026-0.026-0.039-0.039
		c-0.127,0.174-0.412,0.141-0.468,0.418c-0.009,0.043-0.109,0.077-0.173,0.099c-0.153,0.053-0.318,0.077-0.464,0.144
		c-0.521,0.237-1.035,0.49-1.555,0.731c-0.067,0.031-0.149,0.029-0.226,0.043c-0.007-0.019-0.014-0.037-0.021-0.056
		c0.339-0.175,0.683-0.34,1.013-0.529c0.237-0.136,0.456-0.303,0.683-0.457c0.036-0.024,0.065-0.071,0.104-0.078
		c0.572-0.103,0.961-0.531,1.418-0.827c0.411-0.267,0.752-0.643,1.122-0.973c0.028-0.025,0.04-0.068,0.03-0.135
		c-0.234,0.172-0.468,0.344-0.701,0.515c-0.015-0.015-0.028-0.029-0.042-0.044c1.202-1.035,2.403-2.073,3.241-3.438
		c-0.025-0.022-0.052-0.044-0.077-0.066c-0.119,0.155-0.238,0.311-0.355,0.467c-0.235,0.313-0.45,0.644-0.708,0.937
		c-0.164,0.186-0.39,0.317-0.588,0.473c-0.158,0.125-0.258,0.301-0.481,0.374c-0.156,0.051-0.258,0.266-0.387,0.404
		c-0.138,0.147-0.297,0.254-0.494,0.283c-0.019-0.022-0.037-0.045-0.057-0.067c0.131-0.09,0.261-0.179,0.392-0.269
		c-0.027-0.031-0.055-0.063-0.082-0.096c-1.193,0.984-2.469,1.834-3.885,2.454c-0.011-0.018-0.021-0.035-0.031-0.052
		c0.268-0.15,0.537-0.299,0.805-0.451c0.285-0.162,0.58-0.311,0.848-0.498c0.25-0.176,0.58-0.27,0.692-0.614
		c-0.982,0.576-1.989,1.095-3.068,1.473c0.38-0.201,0.759-0.401,1.139-0.603c-0.003-0.014-0.005-0.028-0.007-0.042
		c-0.062,0-0.134-0.021-0.186,0.003c-0.277,0.127-0.544,0.28-0.825,0.396c-0.429,0.177-0.867,0.331-1.303,0.491
		c-0.036,0.013-0.085-0.008-0.189-0.019c0.416-0.194,0.771-0.36,1.128-0.526c-0.007-0.021-0.014-0.042-0.021-0.062
		c-0.063,0.007-0.128,0.014-0.236,0.026c0.065-0.048,0.099-0.078,0.136-0.098c0.071-0.036,0.161-0.051,0.215-0.103
		c0.527-0.507,1.228-0.744,1.808-1.168c0.44-0.322,0.889-0.636,1.327-0.961c0.081-0.06,0.135-0.157,0.201-0.238
		c-0.017-0.02-0.032-0.039-0.049-0.059c-0.068,0.037-0.141,0.068-0.204,0.113c-0.112,0.079-0.235,0.152-0.326,0.253
		c-0.302,0.336-0.716,0.494-1.093,0.709c-0.142,0.081-0.306,0.122-0.459,0.184c-0.161,0.064-0.332,0.114-0.479,0.203
		c-0.209,0.127-0.444,0.037-0.656,0.116c-0.085,0.032-0.177,0.05-0.287,0.038c0.039-0.034,0.073-0.076,0.117-0.102
		c0.498-0.3,1.042-0.544,1.483-0.911c0.479-0.398,1.011-0.719,1.496-1.103c0.054-0.042,0.093-0.101,0.123-0.172
		c-1.171,0.663-2.268,1.45-3.525,1.958c0.035-0.032,0.065-0.074,0.106-0.093c0.242-0.113,0.399-0.331,0.65-0.459
		c0.521-0.267,0.98-0.658,1.454-1.013c0.124-0.093,0.32-0.156,0.301-0.41c-0.064,0.045-0.108,0.068-0.143,0.102
		c-0.322,0.316-0.704,0.488-1.152,0.569c-0.184,0.033-0.342,0.217-0.506,0.341c-0.177,0.134-0.346,0.277-0.519,0.417
		c-0.015-0.013-0.029-0.026-0.045-0.039c0.088-0.096,0.176-0.192,0.296-0.324c-0.316,0.154-0.592,0.289-0.867,0.424
		c-0.017-0.024-0.032-0.05-0.048-0.074c1.03-0.529,1.96-1.192,2.807-1.969c-0.014-0.021-0.028-0.042-0.042-0.062
		c-0.196,0.119-0.393,0.239-0.589,0.358c-0.007-0.01-0.015-0.02-0.021-0.03c0.186-0.134,0.371-0.266,0.555-0.401
		c0.073-0.056,0.144-0.116,0.21-0.18c0.479-0.457,0.984-0.891,1.425-1.382c0.573-0.637,1.089-1.318,1.515-2.073
		c0.356-0.631,0.682-1.272,0.912-1.953c0.158-0.471,0.234-0.971,0.322-1.463c0.084-0.471,0.172-0.945,0.192-1.421
		c0.027-0.662,0.003-1.328-0.019-1.991c-0.012-0.356-0.039-0.714-0.102-1.064c-0.078-0.442-0.169-0.886-0.308-1.312
		c-0.264-0.806-0.562-1.6-0.854-2.397c-0.038-0.106-0.124-0.195-0.174-0.298c-0.047-0.096-0.064-0.206-0.114-0.3
		c-0.113-0.209-0.223-0.422-0.36-0.615c-0.228-0.318-0.46-0.634-0.719-0.926c-0.251-0.284-0.535-0.537-0.808-0.801
		c-0.068-0.066-0.14-0.131-0.219-0.181c-0.064-0.041-0.111-0.184-0.227-0.06c-0.008,0.009-0.063-0.017-0.091-0.037
		c-0.159-0.112-0.321-0.221-0.473-0.344c-0.834-0.678-1.832-0.958-2.854-1.167c-0.505-0.103-1.021-0.21-1.532-0.206
		c-0.681,0.006-1.361,0.103-2.038,0.192c-0.357,0.047-0.711,0.145-1.058,0.25c-0.246,0.074-0.478,0.2-0.716,0.301
		c-0.153,0.065-0.312,0.119-0.461,0.193C12.719,6.29,12.263,6.53,11.8,6.759c-0.089,0.043-0.195,0.052-0.292,0.079
		c-0.026,0.007-0.056,0.017-0.076,0.034c-0.208,0.172-0.415,0.347-0.643,0.537c-0.038-0.091-0.062-0.151-0.088-0.211
		c-0.02-0.012-0.039-0.023-0.059-0.035c0.007,0.412-0.327,0.529-0.556,0.739C9.936,8.04,9.784,8.179,9.646,8.33
		c-0.327,0.355-0.646,0.718-0.971,1.08c0,0-0.03-0.049-0.092-0.146C8.494,9.458,8.427,9.62,8.347,9.776
		C8.315,9.837,8.245,9.878,8.209,9.938c-0.097,0.164-0.197,0.328-0.272,0.501c-0.086,0.2-0.146,0.411-0.218,0.617
		c-0.075,0.215-0.143,0.433-0.23,0.643c-0.048,0.116-0.153,0.21-0.192,0.328c-0.077,0.239-0.115,0.491-0.192,0.73
		c-0.062,0.19-0.157,0.37-0.261,0.609c-0.033-0.128-0.055-0.212-0.076-0.296c0.023,0.006,0.047,0.012,0.07,0.019
		c0.05-0.117,0.113-0.23,0.146-0.352c0.124-0.453,0.084-0.937,0.349-1.37c0.199-0.326,0.239-0.749,0.435-1.077
		C8.097,9.738,8.466,9.202,8.869,8.7c0.532-0.661,1.162-1.229,1.876-1.697c0.152-0.1,0.309-0.194,0.457-0.3
		c0.104-0.075,0.2-0.17,0.25,0.023c0.545-0.296,1.07-0.581,1.596-0.867c0.48-0.261,0.952-0.544,1.446-0.776
		c0.281-0.131,0.601-0.182,0.904-0.261c0.14-0.036,0.284-0.052,0.427-0.082c0.073-0.016,0.145-0.042,0.251-0.074
		c-0.058-0.045-0.08-0.078-0.1-0.076c-0.245,0.018-0.494,0.022-0.735,0.067c-0.252,0.047-0.495,0.14-0.744,0.204
		c-0.103,0.026-0.21,0.028-0.315,0.043c-0.021,0.003-0.053,0.004-0.062,0.018c-0.114,0.186-0.323,0.165-0.493,0.217
		c-0.106,0.032-0.23,0.006-0.39,0.006c-0.117-0.208,0.171-0.317,0.209-0.578c-0.362,0.13-0.68,0.312-1.013,0.348
		c-0.393,0.042-0.574,0.413-0.917,0.498c-0.015-0.024-0.029-0.049-0.044-0.073c0.281-0.168,0.562-0.337,0.845-0.503
		c0.049-0.029,0.131-0.034,0.152-0.074c0.175-0.316,0.515-0.282,0.789-0.386c0.273-0.104,0.546-0.211,0.808-0.349
		c-0.319-0.123-0.54,0.158-0.842,0.149c0.095-0.066,0.19-0.133,0.285-0.2c-0.009-0.015-0.018-0.029-0.026-0.043
		c-0.112,0.037-0.224,0.074-0.335,0.111c-0.012-0.021-0.023-0.043-0.035-0.065c0.115-0.068,0.228-0.14,0.345-0.203
		c0.114-0.062,0.233-0.115,0.35-0.173c-0.01-0.026-0.021-0.052-0.031-0.078c-0.146,0.04-0.298,0.068-0.439,0.122
		c-0.336,0.127-0.677,0.246-0.997,0.406c-0.465,0.232-0.912,0.498-1.368,0.749c-0.216,0.119-0.435,0.233-0.65,0.354
		c-0.416,0.232-0.723,0.576-1.02,0.943C9.023,6.445,8.688,6.743,8.391,7.072C8.143,7.346,7.914,7.637,7.673,7.916
		C7.53,8.081,7.376,8.236,7.233,8.401C7.181,8.462,7.146,8.539,7.103,8.608c0.017,0.012,0.033,0.024,0.05,0.037
		C7.256,8.527,7.359,8.41,7.464,8.292C7.152,8.865,6.678,9.333,6.457,9.956c0.027,0.025,0.054,0.05,0.08,0.076
		c0.026-0.057,0.045-0.119,0.078-0.17c0.22-0.345,0.446-0.685,0.663-1.032c0.133-0.214,0.238-0.445,0.377-0.654
		c0.136-0.204,0.289-0.397,0.45-0.581C8.339,7.327,8.58,7.065,8.83,6.813C9.031,6.611,9.252,6.428,9.482,6.22
		C9.47,6.304,9.461,6.37,9.451,6.437c0.023,0.013,0.046,0.026,0.069,0.04c0.091-0.137,0.182-0.273,0.273-0.41
		C9.749,6.509,9.449,6.795,9.167,7.093c0.011,0.023,0.021,0.046,0.032,0.069c0.06-0.021,0.161-0.03,0.172-0.067
		C9.451,6.84,9.66,6.79,9.949,6.732c-0.065,0.106-0.092,0.184-0.146,0.23C9.587,7.152,9.383,7.344,9.326,7.646
		C9.318,7.684,9.265,7.741,9.231,7.742C8.844,7.752,8.78,8.045,8.7,8.33C8.482,8.289,8.449,8.329,8.455,8.658
		C8.409,8.625,8.375,8.601,8.34,8.576c-0.363,0.666-0.726,1.332-1.111,2.039c-0.06-0.123-0.099-0.202-0.156-0.32
		c-0.103,0.25-0.301,0.409-0.267,0.69c0.015,0.114-0.085,0.241-0.141,0.381c-0.028-0.02-0.058-0.041-0.107-0.076
		c-0.036,0.111-0.07,0.218-0.105,0.326c-0.008-0.009-0.016-0.017-0.024-0.026c-0.058,0.055-0.153,0.101-0.168,0.166
		c-0.082,0.353-0.147,0.71-0.213,1.067c-0.049,0.271-0.099,0.542-0.132,0.814c-0.018,0.154-0.003,0.311-0.003,0.467
		c-0.028,0.002-0.058,0.003-0.086,0.005c-0.007-0.106-0.015-0.213-0.021-0.319c-0.013-0.001-0.026-0.001-0.04-0.002
		c-0.04,0.15-0.081,0.3-0.12,0.446c0.086,0.041,0.156,0.074,0.246,0.116c0.039-0.096,0.078-0.192,0.116-0.284
		c0.198,0.007-0.099,0.357,0.222,0.269c-0.015,0.105-0.043,0.205-0.042,0.304c0.011,0.625,0.055,1.248,0.117,1.87
		c0.023,0.23,0.05,0.462,0.095,0.688c0.025,0.125,0.105,0.237,0.137,0.361c0.028,0.115,0.024,0.239,0.034,0.36
		c-0.028,0.003-0.057,0.007-0.085,0.011c-0.153-0.62-0.307-1.24-0.46-1.86c-0.021-0.001-0.042-0.001-0.063-0.001
		c0,0.186-0.024,0.376,0.005,0.558c0.078,0.476,0.142,0.959,0.28,1.418c0.264,0.865,0.595,1.703,1.275,2.348
		c0.055,0.051,0.22,0.131,0.052,0.254c-0.005,0.004,0.042,0.099,0.079,0.137c0.122,0.122,0.251,0.238,0.377,0.356
		c-0.021,0.022-0.04,0.045-0.061,0.067c-0.077-0.07-0.153-0.14-0.221-0.201c-0.373,0.069-0.509-0.212-0.667-0.459
		c-0.016,0.01-0.031,0.021-0.047,0.03c0.053,0.105,0.095,0.219,0.16,0.315c0.333,0.491,0.758,0.9,1.194,1.297
		c0.047,0.043,0.115,0.062,0.167,0.103c0.238,0.181,0.474,0.365,0.71,0.548c-0.014,0.021-0.026,0.04-0.04,0.06
		c-0.248-0.121-0.495-0.247-0.747-0.361c-0.097-0.044-0.205-0.062-0.308-0.091c-0.441-0.125-0.697-0.469-0.951-0.811
		c-0.287-0.386-0.561-0.779-0.855-1.191c-0.26,0.274,0.146,0.364,0.137,0.571C6.449,21,6.402,20.985,6.318,20.959
		c0.217,0.484,0.536,0.855,0.879,1.212c-0.021,0.018-0.041,0.034-0.062,0.052c-0.16-0.169-0.342-0.322-0.475-0.511
		c-0.233-0.331-0.431-0.688-0.656-1.026c-0.061-0.092-0.167-0.153-0.251-0.231c-0.028-0.026-0.06-0.056-0.072-0.091
		c-0.06-0.166-0.113-0.336-0.179-0.531c-0.156,0.325,0.541,1.986,0.912,2.188c-0.025-0.116-0.045-0.207-0.064-0.297
		c0.015-0.01,0.03-0.02,0.045-0.029c0.357,0.727,0.672,1.483,1.359,1.988c0.024-0.02,0.066-0.052,0.119-0.092
		c0.081,0.159,0.156,0.304,0.23,0.448c0.513-0.081,0.87,0.249,1.268,0.474c0.211,0.12,0.424,0.239,0.635,0.358
		c0.016-0.021,0.03-0.043,0.045-0.063C9.871,24.65,9.69,24.494,9.51,24.339c0.011-0.011,0.021-0.021,0.031-0.032
		c0.26,0.118,0.524,0.229,0.779,0.358c0.175,0.088,0.307,0.213,0.549,0.186c0.208-0.024,0.435,0.117,0.718,0.206
		c-0.063-0.137-0.104-0.226-0.172-0.371c0.248,0.142,0.451,0.258,0.655,0.374c0.094,0.053,0.191,0.114,0.208-0.036
		c0.199,0.046,0.436,0.051,0.618,0.152c0.283,0.158,0.546,0.363,0.788,0.581c0.417,0.375,0.722,0.837,0.942,1.353
		c0.014,0.031,0.036,0.06,0.062,0.103c0.044-0.038,0.076-0.067,0.116-0.103c0.062,0.424,0.175,0.827,0.023,1.242
		c-0.11,0.304-0.233,0.592-0.481,0.812c-0.043,0.037-0.099,0.083-0.107,0.132c-0.062,0.341-0.363,0.454-0.572,0.664
		c-0.254,0.257-0.575,0.273-0.867,0.394c-0.061,0.025-0.157-0.02-0.232-0.047c-0.058-0.021-0.446,0.035-0.499,0.072
		c-0.081,0.058-0.167,0.135-0.258,0.146c-0.531,0.063-1.07,0.17-1.593-0.013c-0.318-0.112-0.632-0.259-0.92-0.434
		c-0.467-0.283-0.936-0.573-1.358-0.915c-0.376-0.305-0.849-0.486-1.143-0.894c-0.553-0.764-1.351-1.275-2.003-1.938
		c-0.558-0.565-1.148-1.1-1.584-1.776c-0.292-0.452-0.627-0.879-0.897-1.344c-0.258-0.444-0.46-0.922-0.679-1.388
		c-0.123-0.264-0.242-0.531-0.341-0.805c-0.166-0.463-0.315-0.933-0.488-1.45c0.102,0.08,0.154,0.121,0.207,0.163
		c0.016-0.01,0.03-0.019,0.045-0.028c-0.088-0.178-0.176-0.355-0.264-0.534c-0.024-0.051-0.06-0.102-0.069-0.156
		c-0.192-1.048-0.189-2.108-0.184-3.168c0-0.013,0.012-0.025,0.038-0.079c0.032,0.074,0.066,0.123,0.074,0.177
		c0.092,0.627,0.034,1.268,0.193,1.891c0.074,0.292,0.062,0.606,0.124,0.903c0.086,0.418,0.188,0.835,0.317,1.241
		c0.072,0.226,0.226,0.424,0.32,0.644c0.072,0.169,0.111,0.353,0.165,0.53c0.019-0.002,0.037-0.004,0.055-0.006
		c0.011-0.035,0.036-0.075,0.028-0.105c-0.144-0.526-0.285-1.053-0.438-1.575c-0.118-0.401-0.275-0.792-0.373-1.197
		c-0.077-0.323-0.123-0.66-0.125-0.992c-0.006-0.933,0-1.867,0.038-2.799c0.019-0.434,0.115-0.866,0.192-1.295
		c0.021-0.117,0.116-0.218,0.148-0.335c0.085-0.314,0.153-0.633,0.23-0.95c0.025-0.103,0.093-0.18,0.149-0.264
		c0.143-0.214,0.305-0.45,0.223-0.755c-0.026-0.098,0.028-0.228,0.07-0.333C2.222,9.91,2.48,9.277,2.734,8.644
		C2.78,8.53,2.817,8.413,2.858,8.297c0.027,0.007,0.055,0.014,0.081,0.021C2.918,8.444,2.914,8.576,2.87,8.693
		C2.806,8.862,2.711,9.021,2.63,9.184c-0.064,0.129-0.14,0.255-0.187,0.39C2.426,9.625,2.473,9.699,2.49,9.763
		c0.018-0.006,0.035-0.012,0.053-0.019c0.234-0.525,0.469-1.051,0.702-1.576c0.03,0.01,0.061,0.021,0.09,0.031
		C3.287,8.391,3.252,8.587,3.187,8.773c-0.072,0.204-0.203,0.391-0.25,0.598C2.899,9.537,2.949,9.723,3.013,9.922
		C3.149,9.638,3.286,9.354,3.424,9.07C3.442,9.074,3.462,9.079,3.48,9.083C3.452,9.187,3.425,9.291,3.396,9.395
		C3.364,9.51,3.332,9.625,3.283,9.799c0.233-0.271,0.422-0.491,0.61-0.71C3.912,9.103,3.931,9.117,3.95,9.132
		c-0.395,1.287-1.081,2.491-1.113,3.881c0.405-0.843,0.55-1.783,1.013-2.605c-0.026,0.123-0.054,0.247-0.081,0.37
		c0.018,0.005,0.035,0.01,0.053,0.016c0.107-0.238,0.214-0.476,0.32-0.713c0.026,0.006,0.053,0.013,0.078,0.019
		c-0.028,0.146-0.049,0.292-0.086,0.436c-0.098,0.371-0.202,0.74-0.301,1.111c-0.004,0.014,0.018,0.034,0.025,0.047
		c0.18-0.435,0.359-0.868,0.539-1.302c0.02,0.006,0.039,0.013,0.059,0.02c-0.013,0.069-0.026,0.138-0.04,0.208
		c0.02,0.007,0.039,0.013,0.059,0.02c0.193-0.377,0.373-0.761,0.583-1.128c0.227-0.398,0.477-0.784,0.727-1.167
		c0.036-0.057,0.13-0.077,0.197-0.114C5.964,8.295,5.96,8.37,5.926,8.427c-0.174,0.291-0.34,0.59-0.54,0.863
		c-0.271,0.368-0.434,0.781-0.576,1.206c-0.031,0.093-0.117,0.213,0.062,0.264c-0.102,0.316-0.204,0.633-0.306,0.95
		c0.082,0.01,0.111,0.003,0.116-0.011c0.094-0.276,0.187-0.552,0.271-0.832C4.959,10.843,4.896,10.799,4.865,10.765z M24.178,5.992
		c0.016-0.016,0.031-0.031,0.047-0.046c-0.055-0.079-0.097-0.172-0.167-0.233c-0.212-0.182-0.448-0.337-0.65-0.529
		c-0.471-0.444-0.998-0.801-1.583-1.07c-0.121-0.055-0.289-0.136-0.382-0.092c-0.133,0.063-0.217,0.03-0.319-0.016
		c-0.352-0.157-0.693-0.339-1.055-0.466c-0.416-0.146-0.85-0.241-1.273-0.364c-0.536-0.156-1.082-0.213-1.638-0.186
		c-0.205,0.01-0.408,0.031-0.612,0.047c0.026,0.055,0.055,0.078,0.085,0.08c0.327,0.023,0.657,0.027,0.982,0.069
		c0.204,0.027,0.439,0.06,0.592,0.179c0.199,0.155,0.402,0.212,0.636,0.234c0.302,0.029,0.622,0.015,0.9,0.114
		c0.618,0.219,1.291,0.282,1.855,0.665c0.406,0.275,0.842,0.507,1.262,0.761c0.261,0.157,0.521,0.315,0.777,0.479
		C23.819,5.738,23.997,5.867,24.178,5.992z M11.117,4.398c0.01,0.026,0.021,0.053,0.03,0.079c0.5-0.259,0.999-0.517,1.498-0.776
		C12.056,3.763,11.589,4.087,11.117,4.398z M22.119,25.87c0.246-0.059,1.047-0.898,1.082-1.108
		C22.695,25.007,22.555,25.584,22.119,25.87z M5.854,10.436c0.03,0.017,0.06,0.034,0.09,0.05c0.221-0.433,0.552-0.804,0.703-1.275
		C6.626,9.199,6.605,9.188,6.585,9.176C6.341,9.596,6.098,10.016,5.854,10.436z M23.054,6.702c-0.021,0.024-0.044,0.048-0.065,0.072
		c0.316,0.305,0.633,0.609,0.95,0.914c0.017-0.018,0.033-0.035,0.05-0.053C23.703,7.297,23.409,6.969,23.054,6.702z M3.043,10.595
		c0.012-0.002,0.022-0.005,0.034-0.008c0.074-0.144,0.119-0.317,0.229-0.425c0.14-0.137,0.157-0.191-0.069-0.325
		C3.17,10.099,3.106,10.347,3.043,10.595z M6.377,18.81c-0.03,0.013-0.062,0.026-0.093,0.039c0.09,0.215,0.179,0.431,0.268,0.646
		c0.033-0.014,0.065-0.027,0.099-0.041C6.56,19.239,6.469,19.024,6.377,18.81z M7.569,9.621c0.019,0.007,0.037,0.015,0.056,0.022
		c0.109-0.212,0.219-0.425,0.327-0.637C7.779,9.188,7.572,9.351,7.569,9.621z M23.733,25.357c0.021,0.023,0.044,0.046,0.065,0.068
		c0.167-0.161,0.335-0.323,0.502-0.485c-0.02-0.021-0.039-0.041-0.059-0.061C24.073,25.039,23.903,25.198,23.733,25.357z
		 M24.996,24.114c-0.021-0.016-0.041-0.031-0.062-0.047c-0.173,0.226-0.346,0.452-0.52,0.678c0.018,0.014,0.034,0.026,0.051,0.04
		C24.643,24.562,24.819,24.338,24.996,24.114z M3.68,12.445c-0.027-0.013-0.055-0.025-0.083-0.038
		c-0.051,0.172-0.102,0.345-0.152,0.517c0.027,0.008,0.055,0.017,0.082,0.025C3.578,12.781,3.629,12.613,3.68,12.445z M23.2,25.8
		c0.02,0.023,0.038,0.047,0.057,0.071c0.137-0.123,0.273-0.246,0.41-0.369c-0.015-0.016-0.028-0.032-0.042-0.048
		C23.483,25.569,23.342,25.685,23.2,25.8z M24.967,6.52c-0.035,0.034-0.069,0.068-0.104,0.103c0.119,0.096,0.238,0.192,0.357,0.289
		c0.019-0.018,0.038-0.036,0.057-0.053C25.174,6.745,25.07,6.632,24.967,6.52z M24.52,8.319c0.03-0.021,0.061-0.042,0.091-0.062
		c-0.095-0.126-0.188-0.253-0.283-0.379c-0.022,0.015-0.045,0.03-0.066,0.044C24.347,8.055,24.433,8.187,24.52,8.319z"/>
	<path fill-rule="evenodd" clip-rule="evenodd" d="M23.259,23.534c-0.039-0.034-0.067-0.061-0.132-0.117
		c-0.081,0.086-0.16,0.171-0.239,0.255c-0.005-0.006-0.011-0.011-0.016-0.017c0.105-0.148,0.197-0.309,0.318-0.444
		c0.685-0.77,1.179-1.658,1.613-2.582c0.175-0.374,0.354-0.755,0.454-1.152c0.349-1.378,0.538-2.777,0.375-4.201
		c-0.083-0.722-0.206-1.44-0.31-2.16c-0.01-0.071-0.007-0.144-0.011-0.215c0.018-0.003,0.035-0.006,0.053-0.009
		c0.034,0.188,0.061,0.378,0.103,0.564c0.044,0.197,0.102,0.392,0.158,0.604c0.044,0.005,0.105,0.012,0.227,0.025
		c-0.061,0.134-0.108,0.242-0.156,0.349c-0.023-0.007-0.047-0.015-0.07-0.022c0.059,0.294,0.118,0.589,0.175,0.884
		c0.009,0.05,0,0.102,0.006,0.152c0.021,0.192,0.056,0.383,0.063,0.576c0.006,0.146-0.026,0.295-0.034,0.443
		c-0.021,0.374-0.04,0.748-0.058,1.122c-0.001,0.021,0.019,0.043,0.015,0.062c-0.073,0.361-0.147,0.723-0.227,1.083
		c-0.085,0.388-0.152,0.781-0.271,1.159c-0.11,0.349-0.269,0.684-0.42,1.019c-0.143,0.314-0.296,0.625-0.461,0.928
		c-0.1,0.183-0.233,0.348-0.351,0.521c-0.221,0.325-0.439,0.65-0.66,0.976C23.359,23.401,23.311,23.464,23.259,23.534z"/>
	<path fill-rule="evenodd" clip-rule="evenodd" d="M15.364,0.827c0.368-0.299,0.779-0.461,1.239-0.52
		c0.202-0.026,0.386-0.149,0.606-0.106c0.259,0.05,0.521,0.077,0.839,0.122c-0.075,0.118-0.111,0.174-0.16,0.25
		c0.095,0.034,0.191,0.068,0.327,0.117c-0.258,0-0.477-0.008-0.695,0.002c-0.395,0.019-0.789,0.053-1.185,0.07
		c-0.07,0.003-0.208,0.042-0.176-0.127c0.003-0.016-0.037-0.058-0.04-0.056c-0.032,0.017-0.066,0.037-0.09,0.064
		c-0.029,0.033-0.045,0.102-0.074,0.106C15.76,0.783,15.562,0.803,15.364,0.827z"/>
	<path fill-rule="evenodd" clip-rule="evenodd" d="M5.995,6.08c0.063-0.091,0.126-0.181,0.188-0.272
		C6.168,5.795,6.152,5.782,6.137,5.769C5.944,5.983,5.752,6.196,5.56,6.41C5.549,6.403,5.538,6.396,5.526,6.389
		c0.023-0.047,0.036-0.103,0.07-0.14C5.806,6.013,6.019,5.78,6.233,5.55c0.231-0.247,0.462-0.493,0.701-0.731
		c0.157-0.156,0.332-0.295,0.494-0.447c0.099-0.091,0.181-0.2,0.282-0.288c0.146-0.128,0.296-0.255,0.458-0.362
		c0.439-0.29,0.883-0.575,1.333-0.849c0.111-0.068,0.252-0.087,0.399-0.096c-0.257,0.16-0.519,0.313-0.77,0.482
		C8.759,3.509,8.377,3.751,8.029,4.036C7.771,4.248,7.56,4.521,7.327,4.767C6.954,5.16,6.582,5.553,6.207,5.944
		C6.152,6.001,6.086,6.047,6.024,6.097C6.015,6.091,6.005,6.085,5.995,6.08z"/>
	<path fill-rule="evenodd" clip-rule="evenodd" d="M15.91,1.273c0.022,0.029,0.045,0.059,0.098,0.131
		c-0.223-0.054-0.402-0.098-0.645-0.157c0.757-0.124,1.46-0.255,2.182-0.176c-0.351,0.356-0.796,0.18-1.194,0.254
		C16.246,0.974,16.056,1.336,15.91,1.273z"/>
	<path fill-rule="evenodd" clip-rule="evenodd" d="M5.486,5.506C5.492,5.438,5.498,5.37,5.505,5.29
		C5.447,5.274,5.396,5.26,5.289,5.231C5.45,5.014,5.594,4.821,5.736,4.628C5.758,4.64,5.779,4.651,5.801,4.663
		c0.007,0.06,0.015,0.12,0.028,0.238c0.152-0.201,0.279-0.368,0.405-0.534c0.015,0.011,0.028,0.021,0.043,0.032
		C6.007,4.758,6.017,5.309,5.486,5.506z"/>
	<path fill-rule="evenodd" clip-rule="evenodd" d="M13.594,2.104c0.837-0.334,1.689-0.586,2.484-0.555
		C15.322,1.717,14.458,1.911,13.594,2.104z"/>
	<path fill-rule="evenodd" clip-rule="evenodd" d="M26.126,14.32c0.039,0.549,0.077,1.097,0.116,1.646
		c-0.035,0.003-0.07,0.006-0.105,0.009c-0.042-0.547-0.084-1.094-0.126-1.641C26.05,14.329,26.088,14.324,26.126,14.32z"/>
	<path fill-rule="evenodd" clip-rule="evenodd" d="M14.098,1.037c-0.461,0.137-0.921,0.275-1.382,0.413
		C13.131,1.152,13.606,1.063,14.098,1.037z"/>
	<path fill-rule="evenodd" clip-rule="evenodd" d="M24.807,11.227c0.173,0.463,0.346,0.927,0.518,1.39
		c-0.026,0.01-0.053,0.02-0.08,0.03c-0.168-0.465-0.336-0.93-0.504-1.395C24.763,11.243,24.785,11.235,24.807,11.227z"/>
	<path fill-rule="evenodd" clip-rule="evenodd" d="M14.247,1.073c0.023-0.16,0.068-0.231,0.217-0.219
		c0.114,0.009,0.23-0.031,0.347-0.037c0.042-0.002,0.085,0.032,0.128,0.05c-0.023,0.04-0.045,0.081-0.07,0.119
		c-0.007,0.01-0.025,0.016-0.039,0.018C14.643,1.026,14.456,1.048,14.247,1.073z"/>
	<path fill-rule="evenodd" clip-rule="evenodd" d="M16.985,0.039c-0.235,0.035-0.471,0.069-0.706,0.104
		c-0.004-0.024-0.009-0.048-0.014-0.072c0.204-0.187,0.47-0.073,0.698-0.142C16.972-0.034,16.979,0.002,16.985,0.039z"/>
	<path fill-rule="evenodd" clip-rule="evenodd" d="M5.26,6.973C5.076,7.247,4.892,7.521,4.708,7.795
		c-0.022-0.015-0.045-0.03-0.066-0.044c0.183-0.275,0.365-0.55,0.549-0.826C5.213,6.941,5.236,6.958,5.26,6.973z"/>
	<path fill-rule="evenodd" clip-rule="evenodd" d="M22.982,23.824c-0.236,0.207-0.473,0.414-0.709,0.621
		c-0.021-0.023-0.041-0.047-0.061-0.07c0.238-0.207,0.478-0.414,0.716-0.621C22.946,23.777,22.964,23.801,22.982,23.824z"/>
	<path fill-rule="evenodd" clip-rule="evenodd" d="M20.896,25.957c-0.252,0.163-0.505,0.325-0.757,0.487
		c-0.016-0.023-0.032-0.048-0.048-0.071c0.25-0.168,0.499-0.336,0.749-0.504C20.858,25.898,20.877,25.928,20.896,25.957z"/>
	<path fill-rule="evenodd" clip-rule="evenodd" d="M6.333,6.689C6.542,6.443,6.751,6.197,6.96,5.951
		C6.982,5.97,7.004,5.988,7.025,6.007C6.817,6.254,6.608,6.501,6.4,6.748C6.378,6.729,6.355,6.709,6.333,6.689z"/>
	<path fill-rule="evenodd" clip-rule="evenodd" d="M22.377,24.61c-0.203,0.136-0.407,0.271-0.615,0.411
		c0.058-0.205,0.163-0.29,0.572-0.463C22.349,24.575,22.362,24.593,22.377,24.61z"/>
	<path fill-rule="evenodd" clip-rule="evenodd" d="M12.401,5.608c-0.174,0.108-0.347,0.217-0.521,0.326
		c-0.015-0.009-0.028-0.018-0.043-0.027c0.026-0.087,0.053-0.174,0.089-0.294c0.06,0.066,0.086,0.096,0.112,0.125
		c0.102-0.071,0.203-0.142,0.305-0.213C12.362,5.553,12.382,5.58,12.401,5.608z"/>
	<path fill-rule="evenodd" clip-rule="evenodd" d="M15.258,1.985c0.269-0.033,0.537-0.066,0.806-0.099
		c0.003,0.019,0.005,0.039,0.008,0.058c-0.27,0.032-0.539,0.065-0.809,0.097C15.262,2.022,15.26,2.003,15.258,1.985z"/>
	<path fill-rule="evenodd" clip-rule="evenodd" d="M18.517,29.025c-0.191,0.072-0.382,0.146-0.572,0.218
		c-0.011-0.028-0.021-0.057-0.032-0.086c0.189-0.068,0.379-0.138,0.568-0.206C18.492,28.976,18.504,29,18.517,29.025z"/>
	<path fill-rule="evenodd" clip-rule="evenodd" d="M8.403,4.637C8.249,4.84,8.095,5.044,7.94,5.249
		C7.914,5.227,7.889,5.206,7.862,5.184c0.145-0.212,0.379-0.347,0.544-0.542L8.403,4.637z"/>
	<path fill-rule="evenodd" clip-rule="evenodd" d="M24.45,10.387c0.094,0.204,0.188,0.407,0.281,0.61
		c-0.02,0.009-0.039,0.019-0.058,0.028c-0.099-0.199-0.196-0.398-0.294-0.597C24.403,10.414,24.427,10.4,24.45,10.387z"/>
	<path fill-rule="evenodd" clip-rule="evenodd" d="M24.894,3.471c0.154,0.103,0.309,0.205,0.462,0.307
		c-0.016,0.024-0.031,0.049-0.048,0.074c-0.154-0.102-0.31-0.203-0.465-0.304C24.859,3.522,24.877,3.497,24.894,3.471z"/>
	<path fill-rule="evenodd" clip-rule="evenodd" d="M6.094,8.182c0-0.273,0.058-0.348,0.305-0.434
		C6.29,7.902,6.191,8.042,6.094,8.182z"/>
	<path fill-rule="evenodd" clip-rule="evenodd" d="M8.406,4.643c0.128-0.091,0.256-0.181,0.383-0.271
		c-0.138,0.325-0.202,0.36-0.386,0.266C8.403,4.637,8.406,4.643,8.406,4.643z"/>
	<path fill-rule="evenodd" clip-rule="evenodd" d="M4.941,9.503C4.854,9.671,4.767,9.839,4.68,10.007
		C4.655,9.995,4.631,9.983,4.606,9.971C4.693,9.803,4.78,9.634,4.867,9.466C4.892,9.479,4.916,9.491,4.941,9.503z"/>
	<path fill-rule="evenodd" clip-rule="evenodd" d="M16.919-0.306c0.162-0.028,0.325-0.056,0.487-0.084
		c0.004,0.024,0.007,0.049,0.011,0.073c-0.162,0.025-0.325,0.049-0.487,0.074C16.926-0.265,16.923-0.285,16.919-0.306z"/>
	<path fill-rule="evenodd" clip-rule="evenodd" d="M7.479,19.916c0.087,0.136,0.174,0.271,0.261,0.407
		c-0.022,0.015-0.046,0.028-0.068,0.043c-0.088-0.138-0.176-0.274-0.264-0.411C7.431,19.942,7.455,19.929,7.479,19.916z"/>
	<path fill-rule="evenodd" clip-rule="evenodd" d="M4.103,9.683c0.092-0.165,0.184-0.33,0.276-0.494
		c0.015,0.008,0.03,0.016,0.045,0.023C4.341,9.38,4.258,9.548,4.174,9.717C4.15,9.706,4.126,9.694,4.103,9.683z"/>
	<path fill-rule="evenodd" clip-rule="evenodd" d="M20.724,25.773c0.151-0.109,0.303-0.22,0.454-0.329
		c0.017,0.022,0.032,0.046,0.049,0.068c-0.155,0.104-0.311,0.207-0.466,0.311C20.748,25.807,20.736,25.79,20.724,25.773z"/>
</g>
</svg>
