<?xml version="1.0" encoding="utf-8"?>
<!-- Generator: Adobe Illustrator 16.0.0, SVG Export Plug-In . SVG Version: 6.00 Build 0)  -->
<!DOCTYPE svg PUBLIC "-//W3C//DTD SVG 1.1//EN" "http://www.w3.org/Graphics/SVG/1.1/DTD/svg11.dtd">
<svg version="1.1" id="Layer_1" xmlns="http://www.w3.org/2000/svg" xmlns:xlink="http://www.w3.org/1999/xlink" x="0px" y="0px"
	 width="32px" height="32px" viewBox="0 0 32 32" enable-background="new 0 0 32 32" xml:space="preserve">
<g>
	<path fill="#231F20" d="M21.427,6.304c0-3.33-2.592-5.776-5.428-5.776c-2.839,0-5.425,2.45-5.425,5.776
		c0,2.296,1.185,4.351,2.554,6.181c0.72-0.688,1.514-1.535,2.177-2.405c0.06-0.077,0.116-0.154,0.173-0.234
		c-0.899-1.358-1.463-2.73-1.463-3.542c0-1.575,1.15-2.336,1.984-2.336s1.987,0.761,1.987,2.336c0,0.963-0.793,2.714-2,4.297
		c-0.72,0.944-1.56,1.845-2.328,2.571c0.682,1.038,1.265,2.089,1.733,3.079c1.081-0.942,2.272-2.176,3.334-3.568
		C20.156,10.806,21.427,8.684,21.427,6.304z"/>
	<path fill="#231F20" d="M10.729,18.401c-0.432-0.896-0.992-1.914-1.615-2.812c-0.056-0.081-0.112-0.159-0.169-0.238
		c-1.57,0.436-3.049,0.549-3.821,0.298c-1.498-0.487-1.866-1.815-1.608-2.608s1.337-1.655,2.835-1.169
		c0.916,0.298,2.336,1.593,3.469,3.229c0.677,0.977,1.273,2.055,1.727,3.01c1.197-0.328,2.378-0.558,3.465-0.698
		c-0.562-1.319-1.367-2.832-2.364-4.271c-1.344-1.942-2.97-3.807-5.233-4.541c-3.167-1.03-6.294,0.679-7.17,3.376
		c-0.877,2.699,0.653,5.917,3.816,6.944C6.246,19.63,8.567,19.139,10.729,18.401z"/>
	<path fill="#231F20" d="M12.194,22.355c1.138-0.341,2.348-0.575,3.396-0.713c0.058-1.239,0.204-2.432,0.406-3.509
		c-1.429,0.126-3.116,0.425-4.794,0.928c-2.261,0.678-4.536,1.648-5.936,3.573c-1.957,2.693-1.298,6.196,0.996,7.862
		c2.297,1.669,5.829,1.207,7.784-1.484c1.35-1.856,1.6-4.217,1.567-6.501c-0.986,0.133-2.128,0.352-3.175,0.666
		c-0.093,0.027-0.185,0.058-0.277,0.087c-0.071,1.629-0.422,3.069-0.899,3.728c-0.925,1.272-2.304,1.212-2.978,0.723
		c-0.675-0.49-1.16-1.783-0.234-3.058C8.617,23.877,10.289,22.928,12.194,22.355z"/>
	<path fill="#231F20" d="M21.033,19.135c-0.179,0.979-0.322,2.131-0.348,3.225c-0.001,0.098-0.002,0.194-0.002,0.292
		c1.526,0.57,2.788,1.349,3.266,2.006c0.926,1.274,0.442,2.565-0.232,3.055c-0.675,0.491-2.055,0.553-2.98-0.72
		c-0.566-0.78-0.953-2.662-0.909-4.652c0.028-1.188,0.179-2.411,0.373-3.45c-1.162-0.438-2.25-0.945-3.213-1.472
		c-0.32,1.398-0.559,3.095-0.599,4.846c-0.055,2.36,0.165,4.824,1.563,6.749c1.957,2.695,5.492,3.149,7.787,1.483
		c2.296-1.669,2.949-5.171,0.993-7.861C25.382,20.776,23.216,19.81,21.033,19.135z"/>
	<path fill="#231F20" d="M31.756,11.974c-0.877-2.7-4.006-4.402-7.17-3.374c-2.185,0.709-3.773,2.471-5.09,4.339
		c0.876,0.472,1.928,0.966,2.96,1.326c0.093,0.033,0.184,0.062,0.276,0.093c1.015-1.275,2.144-2.235,2.916-2.486
		c1.498-0.486,2.578,0.372,2.835,1.165c0.258,0.793-0.11,2.126-1.607,2.612c-0.916,0.297-2.826,0.085-4.704-0.574
		c-1.122-0.392-2.238-0.913-3.166-1.419c-0.776,0.968-1.596,1.848-2.393,2.601c1.23,0.736,2.771,1.488,4.424,2.067
		c2.229,0.78,4.64,1.333,6.902,0.597C31.106,17.893,32.632,14.67,31.756,11.974z"/>
</g>
</svg>
