<?xml version="1.0" encoding="utf-8"?>
<!-- Generator: Adobe Illustrator 16.0.0, SVG Export Plug-In . SVG Version: 6.00 Build 0)  -->
<!DOCTYPE svg PUBLIC "-//W3C//DTD SVG 1.1//EN" "http://www.w3.org/Graphics/SVG/1.1/DTD/svg11.dtd">
<svg version="1.1" id="Layer_1" xmlns="http://www.w3.org/2000/svg" xmlns:xlink="http://www.w3.org/1999/xlink" x="0px" y="0px"
	 width="32px" height="32px" viewBox="0 0 32 32" enable-background="new 0 0 32 32" xml:space="preserve">
<path fill="#010101" d="M16,0C7.163,0,0,7.164,0,16c0,8.836,7.163,16,16,16s16-7.164,16-16C32,7.164,24.837,0,16,0z M25.502,25.502
	c-1.235,1.234-2.673,2.204-4.272,2.881c-0.406,0.172-0.819,0.322-1.237,0.453v-2.398c0-1.26-0.433-2.188-1.297-2.781
	c0.542-0.053,1.039-0.125,1.492-0.219s0.933-0.229,1.438-0.406s0.958-0.389,1.359-0.633s0.786-0.562,1.156-0.953
	s0.68-0.834,0.93-1.328s0.448-1.088,0.594-1.781s0.219-1.456,0.219-2.289c0-1.615-0.526-2.99-1.578-4.125
	c0.479-1.25,0.427-2.609-0.156-4.078l-0.391-0.047C23.487,7.766,23,7.88,22.297,8.141s-1.492,0.688-2.367,1.281
	c-1.239-0.344-2.526-0.516-3.859-0.516c-1.344,0-2.625,0.172-3.844,0.516c-0.552-0.375-1.075-0.685-1.57-0.93
	s-0.891-0.412-1.188-0.5S8.896,7.849,8.641,7.828S8.222,7.802,8.148,7.812S8.023,7.833,7.992,7.844
	c-0.583,1.479-0.636,2.838-0.156,4.078c-1.052,1.135-1.578,2.51-1.578,4.125c0,0.833,0.073,1.596,0.219,2.289
	s0.344,1.287,0.594,1.781S7.63,21.055,8,21.445s0.755,0.709,1.156,0.953s0.854,0.455,1.359,0.633s0.984,0.312,1.438,0.406
	s0.95,0.166,1.492,0.219c-0.854,0.584-1.281,1.51-1.281,2.781v2.445c-0.472-0.141-0.937-0.307-1.394-0.5
	c-1.6-0.677-3.037-1.646-4.272-2.881c-1.234-1.235-2.204-2.672-2.881-4.272c-0.7-1.655-1.055-3.414-1.055-5.229
	s0.354-3.575,1.055-5.229c0.677-1.6,1.646-3.037,2.881-4.272c1.235-1.235,2.673-2.204,4.272-2.881
	c1.654-0.7,3.414-1.055,5.229-1.055s3.575,0.355,5.229,1.055c1.6,0.677,3.037,1.646,4.272,2.881
	c1.234,1.235,2.204,2.672,2.881,4.272c0.7,1.655,1.055,3.414,1.055,5.229s-0.354,3.574-1.055,5.229
	C27.706,22.83,26.736,24.267,25.502,25.502z"/>
</svg>
