<?xml version="1.0" encoding="utf-8"?>
<!-- Generator: Adobe Illustrator 16.0.0, SVG Export Plug-In . SVG Version: 6.00 Build 0)  -->
<!DOCTYPE svg PUBLIC "-//W3C//DTD SVG 1.1//EN" "http://www.w3.org/Graphics/SVG/1.1/DTD/svg11.dtd">
<svg version="1.1" id="Layer_1" xmlns="http://www.w3.org/2000/svg" xmlns:xlink="http://www.w3.org/1999/xlink" x="0px" y="0px"
	 width="32px" height="32px" viewBox="0 0 32 32" enable-background="new 0 0 32 32" xml:space="preserve">
<g>
	<path id="path2171" d="M17.285,31.938c4.838-0.443,9.128-3.066,11.648-7.121c1.274-2.05,2.17-4.801,2.247-6.9l0.019-0.508
		l-2.986-0.019c-3.403-0.021-3.082-0.09-3.166,0.671c-0.078,0.713-0.395,1.764-0.764,2.543c-1.544,3.252-4.648,5.249-8.194,5.271
		c-1.163,0.007-1.881-0.099-2.869-0.423c-2.048-0.67-3.685-1.92-4.864-3.714c-0.705-1.072-1.148-2.229-1.385-3.608l-0.123-0.721
		H3.842H0.835L0.812,17.68c-0.034,0.405,0.183,1.844,0.418,2.776c1.083,4.288,3.942,7.874,7.865,9.865
		c1.572,0.799,3.416,1.369,4.964,1.537c0.418,0.045,0.859,0.094,0.979,0.107C15.52,32.02,16.532,32.008,17.285,31.938z
		 M17.575,22.012c2.543-0.803,4.184-3.271,3.879-5.835c-0.053-0.443-0.358-1.426-1.304-4.19c-1.102-3.22-1.309-3.889-1.206-3.889
		c0.016,0,0.255,0.092,0.532,0.205c2.904,1.182,5.073,3.931,5.557,7.042l0.085,0.544h3.04h3.041l-0.021-0.398
		c-0.108-2.091-0.999-4.789-2.245-6.792c-2.5-4.023-6.841-6.693-11.562-7.112c-0.392-0.035-0.738-0.092-0.771-0.127
		c-0.032-0.035-0.164-0.383-0.292-0.774C16.178,0.287,16.04-0.015,15.996,0c-0.043,0.014-0.189,0.357-0.324,0.762
		c-0.281,0.843-0.104,0.741-1.534,0.888c-1.594,0.164-3.436,0.727-5.042,1.542C5.662,4.936,2.981,7.969,1.67,11.596
		c-0.459,1.269-0.981,3.865-0.847,4.214c0.04,0.104,0.351,0.113,3.034,0.097l2.99-0.019l0.05-0.182
		c0.028-0.1,0.115-0.492,0.194-0.873c0.616-2.956,2.745-5.47,5.577-6.585c0.292-0.115,0.391-0.129,0.418-0.059
		c0.03,0.079-1.252,3.944-2.218,6.684c-0.298,0.847-0.307,0.895-0.311,1.812c-0.003,0.692,0.03,1.066,0.125,1.409
		c0.545,1.97,2.006,3.435,3.959,3.969C15.452,22.284,16.784,22.262,17.575,22.012z"/>
</g>
</svg>
