<?xml version="1.0" encoding="utf-8"?>
<!-- Generator: Adobe Illustrator 16.0.0, SVG Export Plug-In . SVG Version: 6.00 Build 0)  -->
<!DOCTYPE svg PUBLIC "-//W3C//DTD SVG 1.1//EN" "http://www.w3.org/Graphics/SVG/1.1/DTD/svg11.dtd">
<svg version="1.1" id="Layer_1" xmlns="http://www.w3.org/2000/svg" xmlns:xlink="http://www.w3.org/1999/xlink" x="0px" y="0px"
	 width="32px" height="32px" viewBox="0 0 32 32" enable-background="new 0 0 32 32" xml:space="preserve">
<path id="path4229" d="M16.166,3.2c-3.163,0-5.206,2.395-5.206,6.904c0,4.243,1.423,6.249,3.207,7.04
	c0.076-0.095,0.15-0.191,0.224-0.288c0.75-0.986,1.402-2.071,1.902-3.12c-0.116,0.025-0.236,0.041-0.363,0.041
	c-0.715,0-1.596-1.902-1.537-3.672c0.059-1.771,0.54-3.411,1.773-3.411c0.854,0,1.659,1.309,1.659,3.411
	c0,2.24-1.767,5.744-4.042,8.24C10.745,15.91,8.63,12.94,4.267,12.94C2.123,12.94,0,14.918,0,17.391
	c0,2.645,3.856,7.322,9.566,7.322c1.453,0,3.077-0.703,4.636-1.872c0.486,0.276,1.004,0.536,1.558,0.771
	c-0.875,1.804-1.534,3.602-1.906,5.188h3.79c0.303-1.384,0.793-2.821,1.421-4.209c1.069,0.195,2.246,0.306,3.551,0.306
	c5.811,0,9.386-4.788,9.386-7.414c0-1.282-0.892-4.68-4.551-4.68c-3.68,0-7.346,3.549-9.995,7.754
	c-0.199-0.08-0.394-0.166-0.583-0.254c2.416-2.832,4.225-6.636,4.225-10.199C21.096,4.468,17.654,3.2,16.166,3.2z M27.309,16.371
	c0.867,0,1.232,0.653,1.232,1.205c0,1.528-3.552,3.892-6.022,3.892c-0.595,0-1.157-0.031-1.692-0.089
	C22.722,18.497,25.115,16.371,27.309,16.371L27.309,16.371z M4.636,16.454c2.432,0,4.062,2.057,6.461,4.141
	c-0.802,0.464-1.606,0.733-2.373,0.733c-2.71,0-5.188-2.547-5.188-3.623C3.536,17.059,3.981,16.454,4.636,16.454L4.636,16.454z"/>
</svg>
