<?xml version="1.0" encoding="utf-8"?>
<!-- Generator: Adobe Illustrator 16.0.0, SVG Export Plug-In . SVG Version: 6.00 Build 0)  -->
<!DOCTYPE svg PUBLIC "-//W3C//DTD SVG 1.1//EN" "http://www.w3.org/Graphics/SVG/1.1/DTD/svg11.dtd">
<svg version="1.1" id="Layer_1" xmlns="http://www.w3.org/2000/svg" xmlns:xlink="http://www.w3.org/1999/xlink" x="0px" y="0px"
	 width="32px" height="32px" viewBox="0 0 32 32" enable-background="new 0 0 32 32" xml:space="preserve">
<path id="path5" d="M26.712,10.505c-2.921,0-5.288,2.372-5.288,5.296c0,0.018,0.011,0.213,0.013,0.251
	c0.007,0.358-0.083,1.114-0.878,1.594c-0.799,0.48-1.525,0.235-1.877,0.055c-0.065-0.039-0.227-0.13-0.228-0.131
	c-0.342-0.229-0.86-0.721-0.86-1.599c0-0.852,0.503-1.314,0.825-1.523c0.078-0.041,0.26-0.146,0.26-0.146
	c1.56-0.921,2.609-2.616,2.609-4.562c0-2.924-2.368-5.296-5.289-5.296s-5.289,2.372-5.289,5.296c0,1.945,1.05,3.641,2.609,4.562
	c0,0,0.181,0.104,0.259,0.146c0.323,0.209,0.826,0.672,0.826,1.523c0,0.878-0.519,1.37-0.86,1.6c0,0-0.292,0.162-0.292,0.162l0,0
	c-0.372,0.175-1.06,0.365-1.811-0.087c-0.795-0.479-0.885-1.235-0.878-1.594c0.001-0.038,0.012-0.233,0.012-0.251
	c0-2.924-2.367-5.296-5.288-5.296C2.368,10.505,0,12.877,0,15.801c0,2.926,2.368,5.297,5.288,5.297c0.913,0,1.721-0.202,2.471-0.61
	c0,0,0.205-0.122,0.281-0.169c0.338-0.172,1.009-0.389,1.758,0.062c0.782,0.472,0.916,1.211,0.926,1.613
	c-0.004,0.088-0.013,0.283-0.013,0.283c0.011,2.917,2.373,5.278,5.288,5.278s5.277-2.362,5.288-5.278l0.003,0.001
	c0,0-0.011-0.18-0.015-0.26c0.005-0.396,0.127-1.155,0.927-1.638c0.749-0.451,1.421-0.234,1.758-0.062
	c0.077,0.047,0.23,0.14,0.23,0.14c0.75,0.408,1.608,0.641,2.521,0.641c2.921,0,5.288-2.372,5.288-5.298
	C32,12.877,29.633,10.505,26.712,10.505L26.712,10.505z M16,7.694c1.129,0,2.043,0.917,2.043,2.047S17.129,11.788,16,11.788
	c-1.128,0-2.043-0.917-2.043-2.047S14.872,7.694,16,7.694z M5.289,17.849c-1.128,0-2.043-0.917-2.043-2.047s0.915-2.047,2.043-2.047
	s2.043,0.917,2.043,2.047S6.418,17.849,5.289,17.849z M16,24.306c-1.128,0-2.043-0.916-2.043-2.047c0-1.13,0.915-2.047,2.043-2.047
	c1.129,0,2.043,0.917,2.043,2.047C18.043,23.39,17.129,24.306,16,24.306z M26.711,17.849c-1.129,0-2.043-0.917-2.043-2.047
	s0.914-2.047,2.043-2.047s2.044,0.917,2.044,2.047S27.84,17.849,26.711,17.849z"/>
</svg>
