<?xml version="1.0" encoding="utf-8"?>
<!-- Generator: Adobe Illustrator 16.0.0, SVG Export Plug-In . SVG Version: 6.00 Build 0)  -->
<!DOCTYPE svg PUBLIC "-//W3C//DTD SVG 1.1//EN" "http://www.w3.org/Graphics/SVG/1.1/DTD/svg11.dtd">
<svg version="1.1" id="Layer_1" xmlns="http://www.w3.org/2000/svg" xmlns:xlink="http://www.w3.org/1999/xlink" x="0px" y="0px"
	 width="32px" height="32px" viewBox="0 0 32 32" enable-background="new 0 0 32 32" xml:space="preserve">
<g>
	<path fill="#231F20" d="M16,5.329c0.732,0,1.332-0.599,1.332-1.332V1.333C17.332,0.6,16.732,0,16,0S14.668,0.6,14.668,1.333v2.664
		C14.668,4.729,15.268,5.329,16,5.329z"/>
	<path fill="#231F20" d="M16,32c0.732,0,1.332-0.6,1.332-1.332v-2.664c0-0.732-0.6-1.332-1.332-1.332s-1.332,0.6-1.332,1.332v2.664
		C14.668,31.4,15.268,32,16,32z"/>
	<path fill="#231F20" d="M26.671,16c0,0.732,0.6,1.332,1.332,1.332h2.665C31.4,17.332,32,16.732,32,16s-0.6-1.332-1.332-1.332
		h-2.665C27.271,14.668,26.671,15.268,26.671,16z"/>
	<path fill="#231F20" d="M0,16c0,0.732,0.6,1.332,1.332,1.332h2.665c0.732,0,1.332-0.6,1.332-1.332s-0.6-1.332-1.332-1.332H1.332
		C0.6,14.668,0,15.268,0,16z"/>
	<path fill="#231F20" d="M23.546,8.455c0.518,0.518,1.366,0.518,1.884,0l1.884-1.884c0.519-0.518,0.519-1.366,0-1.884
		c-0.518-0.518-1.365-0.518-1.884,0l-1.884,1.884C23.027,7.089,23.027,7.937,23.546,8.455z"/>
	<path fill="#231F20" d="M4.687,27.314c0.518,0.518,1.365,0.518,1.884,0l1.884-1.885c0.519-0.518,0.519-1.365,0-1.884
		c-0.518-0.519-1.366-0.519-1.884,0L4.687,25.43C4.169,25.947,4.169,26.796,4.687,27.314z"/>
	<path fill="#231F20" d="M23.546,23.546c-0.519,0.519-0.519,1.366,0,1.884l1.884,1.885c0.519,0.518,1.366,0.518,1.884,0
		c0.519-0.519,0.519-1.367,0-1.885l-1.884-1.884C24.912,23.027,24.063,23.027,23.546,23.546z"/>
	<path fill="#231F20" d="M4.687,4.687c-0.519,0.518-0.519,1.366,0,1.884L6.57,8.455c0.518,0.518,1.366,0.518,1.884,0
		c0.519-0.518,0.519-1.366,0-1.884L6.57,4.687C6.052,4.168,5.204,4.168,4.687,4.687z"/>
	<path fill="#231F20" d="M16.11,6.718c-5.127,0-9.282,4.155-9.282,9.282c0,5.127,4.155,9.282,9.282,9.282s9.282-4.155,9.282-9.282
		C25.393,10.874,21.237,6.718,16.11,6.718z M16.11,22.78c-1.811,0-3.513-0.705-4.794-1.986C10.035,19.515,9.33,17.811,9.33,16
		s0.705-3.514,1.986-4.794C12.598,9.925,14.3,9.22,16.11,9.22c1.812,0,3.514,0.705,4.794,1.986c1.28,1.28,1.986,2.983,1.986,4.794
		s-0.706,3.515-1.986,4.794C19.624,22.075,17.922,22.78,16.11,22.78z"/>
</g>
</svg>
