<?xml version="1.0" encoding="utf-8"?>
<!-- Generator: Adobe Illustrator 16.0.0, SVG Export Plug-In . SVG Version: 6.00 Build 0)  -->
<!DOCTYPE svg PUBLIC "-//W3C//DTD SVG 1.1//EN" "http://www.w3.org/Graphics/SVG/1.1/DTD/svg11.dtd">
<svg version="1.1" id="Layer_1" xmlns="http://www.w3.org/2000/svg" xmlns:xlink="http://www.w3.org/1999/xlink" x="0px" y="0px"
	 width="32px" height="32px" viewBox="0 0 32 32" enable-background="new 0 0 32 32" xml:space="preserve">
<g>
	<path d="M28.74,9.481c0,0.296,0,0.557,0,0.853c0,8.667-6.592,18.665-18.667,18.665c-3.703,0-7.185-0.812-10.073-2.666
		c0.518,0.075,1.037,0.112,1.556,0.112c3.073,0,5.926-1.333,8.147-3.111c-2.852-0.037-5.296-1.963-6.111-4.555
		C4,18.852,4.408,18.89,4.814,18.89c0.593,0,1.186-0.075,1.741-0.224c-3-0.592-5.26-3.258-5.26-6.442c0-0.038,0-0.038,0-0.075
		c0.89,0.481,1.89,0.777,2.962,0.814c-1.776-1.185-2.924-3.186-2.924-5.444c0-1.222,0.333-2.222,0.889-3.186
		c3.257,3.963,8.073,6.445,13.515,6.742c-0.109-0.482-0.146-1.001-0.146-1.519c0-3.629,2.925-6.555,6.556-6.555
		c1.887,0,3.592,0.813,4.813,2.073c1.481-0.296,2.888-0.853,4.147-1.593C30.628,5,29.592,6.296,28.221,7.112
		C29.554,6.963,30.813,6.594,32,6.076C31.109,7.407,29.999,8.555,28.74,9.481z"/>
</g>
</svg>
